<?xml version="1.0" standalone="no"?>
<!DOCTYPE svg PUBLIC "-//W3C//DTD SVG 20010904//EN"
 "http://www.w3.org/TR/2001/REC-SVG-20010904/DTD/svg10.dtd">
<svg version="1.0" xmlns="http://www.w3.org/2000/svg"
 width="700.000000pt" height="700.000000pt" viewBox="0 0 700.000000 700.000000"
 preserveAspectRatio="xMidYMid meet">
<metadata>
Created by potrace 1.14, written by Peter Selinger 2001-2017
</metadata>
<g transform="translate(0.000000,700.000000) scale(0.100000,-0.100000)"
fill="#000000" stroke="none">
<path d="M3125 6990 c-27 -4 -75 -11 -105 -14 -30 -4 -62 -9 -70 -11 -8 -2
-33 -7 -55 -10 -74 -10 -248 -50 -312 -71 -23 -7 -52 -15 -65 -18 -13 -2 -52
-14 -88 -26 -74 -25 -88 -29 -95 -30 -10 -2 -249 -102 -276 -116 -16 -8 -31
-14 -34 -14 -26 0 -393 -211 -499 -289 -36 -25 -74 -53 -86 -61 -29 -20 -191
-148 -210 -166 -8 -8 -28 -26 -45 -40 -87 -75 -229 -221 -330 -338 -27 -32
-56 -65 -62 -72 -7 -7 -13 -16 -13 -20 0 -3 -8 -14 -18 -23 -9 -9 -33 -38 -51
-66 -19 -27 -38 -52 -41 -55 -5 -5 -17 -22 -60 -85 -18 -26 -97 -153 -124
-198 -10 -18 -39 -70 -64 -117 -24 -47 -47 -89 -50 -95 -4 -5 -7 -12 -8 -15 0
-3 -13 -32 -28 -65 -58 -126 -65 -141 -71 -168 -4 -15 -11 -30 -16 -33 -5 -3
-9 -12 -9 -21 0 -8 -7 -29 -15 -46 -18 -40 -62 -177 -91 -282 -3 -11 -5 -18
-33 -135 -20 -84 -60 -307 -66 -365 -1 -16 -6 -68 -11 -115 -17 -160 -10 -589
11 -735 3 -16 12 -79 20 -140 9 -60 19 -119 22 -130 8 -23 9 -28 18 -75 23
-126 113 -421 171 -559 8 -20 14 -36 12 -36 -1 0 5 -13 14 -30 9 -16 46 -92
82 -167 36 -75 90 -177 119 -225 29 -48 60 -99 68 -112 7 -14 22 -34 32 -45 9
-11 17 -24 17 -28 0 -5 5 -14 10 -21 6 -7 35 -46 65 -87 29 -41 61 -82 69 -91
9 -9 16 -19 16 -23 0 -4 10 -17 23 -30 12 -13 36 -41 54 -62 49 -61 180 -204
186 -204 2 0 37 -33 78 -73 79 -77 157 -146 210 -187 18 -14 38 -31 45 -37 7
-7 15 -13 18 -13 3 0 35 -23 71 -50 64 -49 231 -160 239 -160 2 0 28 -16 58
-35 29 -19 62 -38 73 -41 11 -4 22 -10 25 -14 4 -6 215 -110 285 -140 80 -35
321 -122 375 -135 8 -2 57 -15 107 -29 51 -14 103 -28 115 -30 13 -2 73 -13
133 -25 61 -11 124 -24 140 -28 45 -10 914 -14 960 -4 22 5 60 12 85 15 60 8
100 15 130 22 14 4 34 8 45 9 11 2 40 8 65 15 25 7 52 13 60 15 36 7 160 42
230 65 47 16 175 62 195 70 11 5 60 26 109 46 119 50 365 176 392 200 7 6 26
17 43 24 17 7 31 16 31 21 0 5 7 9 15 9 8 0 15 5 15 10 0 6 6 10 13 10 7 0 23
9 35 20 12 11 24 20 27 20 9 0 212 149 251 185 6 5 32 28 58 49 83 69 169 150
271 257 106 111 315 366 315 385 0 3 6 12 13 19 23 26 33 40 57 80 13 22 26
42 29 45 8 7 30 42 38 60 3 8 21 39 40 68 18 28 30 52 27 52 -3 0 4 12 14 28
55 77 177 354 248 566 42 122 114 400 129 496 4 25 9 52 10 60 1 8 6 40 10 70
4 30 9 64 11 75 25 131 24 803 -1 845 -2 3 -6 30 -9 60 -3 30 -8 66 -11 80 -3
14 -10 52 -16 85 -13 77 -48 233 -59 265 -4 14 -16 52 -25 85 -9 33 -20 71
-25 85 -23 68 -64 179 -77 209 -8 18 -16 39 -17 45 -5 21 -141 307 -170 356
-8 14 -17 32 -21 40 -8 20 -26 49 -52 87 -13 17 -23 34 -23 37 0 6 -121 188
-130 196 -3 3 -17 21 -30 40 -13 19 -30 41 -37 48 -7 7 -13 16 -13 20 0 4 -13
21 -28 38 -15 17 -43 50 -62 73 -72 87 -240 261 -319 331 -28 25 -66 59 -84
75 -43 39 -211 167 -312 237 -244 168 -579 332 -880 430 -69 22 -316 88 -354
94 -14 2 -37 7 -51 9 -14 3 -38 8 -55 10 -16 3 -41 8 -55 10 -14 3 -41 7 -60
10 -19 3 -53 8 -75 11 -59 10 -742 13 -800 4z"/>
</g>
</svg>
